<svg width="34" height="30" viewBox="0 0 34 30" fill="none" xmlns="http://www.w3.org/2000/svg">
<path fill-rule="evenodd" clip-rule="evenodd" d="M14.9648 29.5396C22.817 29.0999 28.8744 22.5045 28.4257 14.8097C28.3509 13.5639 28.1265 12.3914 27.7526 11.2189L27.5283 11.3654C27.9022 12.538 28.1265 13.7838 28.1265 15.0296C28.1265 21.7716 22.5179 27.1946 15.6379 27.1946C15.4135 27.1946 15.1892 27.1946 14.9648 27.1946V29.5396V29.5396Z" fill="#B59CD3"/>
<path fill-rule="evenodd" clip-rule="evenodd" d="M2.47656 23.4572C5.01916 27.1213 9.20697 29.3931 13.6939 29.5397V27.048C10.1791 26.4618 7.18785 24.9228 5.24351 21.9182L2.47656 23.4572Z" fill="#A080C6"/>
<path fill-rule="evenodd" clip-rule="evenodd" d="M1.20316 9.31335C-0.591611 13.5638 -0.367264 18.3272 1.80142 22.3577L4.64315 20.7455C3.22229 17.7409 3.29707 14.2966 4.8675 11.3653L1.20316 9.31335Z" fill="#9572C0"/>
<path fill-rule="evenodd" clip-rule="evenodd" d="M13.6917 0.153076C8.60653 0.739341 4.1196 3.74395 1.72656 8.14093L5.46568 10.2661C7.33523 7.55466 10.3265 5.86915 13.6169 5.6493V0.153076H13.6917Z" fill="#8B64B9"/>
<path fill-rule="evenodd" clip-rule="evenodd" d="M27.8268 6.0159C24.7608 2.13189 19.9747 -0.139881 15.0391 0.0066847V5.5762C17.7312 5.72276 20.199 6.74873 22.1434 8.5808L27.8268 6.0159Z" fill="#7F54B3"/>
<path fill-rule="evenodd" clip-rule="evenodd" d="M14.3635 13.4177C15.7843 13.4177 16.9809 14.517 16.9809 15.9826C16.9809 17.375 15.8591 18.5475 14.3635 18.5475C12.9426 18.5475 11.7461 17.4483 11.7461 15.9826C11.7461 14.5903 12.9426 13.4177 14.3635 13.4177Z" fill="#565A63"/>
<path fill-rule="evenodd" clip-rule="evenodd" d="M30.8188 6.74915L23.0414 11.9522L15.264 17.0821L14.591 15.9095L13.918 14.737L22.3684 10.7797L30.8188 6.74915Z" fill="#565A63"/>
<path fill-rule="evenodd" clip-rule="evenodd" d="M33.4344 5.35685L31.2657 7.55534H31.1909L31.1161 7.48206C31.0414 7.18893 30.9666 6.8958 30.817 6.67595C30.6674 6.4561 30.5179 6.23625 30.2935 6.0164C30.2188 6.0164 30.2188 5.94312 30.2188 5.86983C30.2188 5.86983 30.2188 5.86983 30.2935 5.79655L33.3596 5.06372C33.4344 5.06372 33.4344 5.06372 33.4344 5.137C33.5092 5.28357 33.5092 5.35685 33.4344 5.35685Z" fill="#7F54B3"/>
</svg>
